<svg width="273" height="285" viewBox="0 0 273 285" fill="none" xmlns="http://www.w3.org/2000/svg">
<path d="M38.3922 4.08005C36.3176 3.81695 35.1637 5.59638 36.3084 7.20474C41.5104 14.5963 42.2976 23.3085 37.9938 30.5019L32.5631 39.5788C25.3675 51.6056 31.1872 67.5448 45.556 75.1639C46.5049 75.6671 47.4674 76.0579 48.4367 76.4673C46.5728 65.9436 47.5653 52.705 56.4309 37.887C57.0283 36.8885 58.493 36.5892 59.6859 37.2217C60.8788 37.8542 61.366 39.1887 60.7686 40.1871C43.7028 68.7112 57.3554 91.8826 63.6019 98.722C65.3635 100.643 68.4143 101.094 70.429 99.7266C72.464 98.3547 72.6558 95.6764 70.9214 93.7405C70.5352 93.3115 65.8471 87.9262 63.521 79.0704C71.6712 78.5498 81.5326 74.5723 85.8586 64.7752C94.9709 46.1424 83.3859 23.4845 60.0163 11.0926C53.2115 7.48427 45.4295 4.97196 38.3922 4.08005Z" fill="#248A00"/>
<path d="M224.695 126.065L166.972 157.682V133.296C166.972 126.54 158.287 122.439 151.668 126.065L93.9444 157.682V87.5715C93.9444 82.8375 89.486 79 83.9861 79H37.5139C32.014 79 27.5555 82.8375 27.5555 87.5715V230.429C27.5555 235.163 32.014 239 37.5139 239H230.042C235.542 239 240 235.163 240 230.429V133.296C240 126.54 231.315 122.439 224.695 126.065Z" fill="black"/>
<path d="M34.0195 247.816H13.7695V261.527H37.5352V270H3.22266V218.812H37.4648V227.355H13.7695V239.555H34.0195V247.816ZM58.1719 262.512C60.0469 262.512 61.5703 261.996 62.7422 260.965C63.9141 259.934 64.5234 258.562 64.5703 256.852H74.0977C74.0742 259.43 73.3711 261.797 71.9883 263.953C70.6055 266.086 68.707 267.75 66.293 268.945C63.9023 270.117 61.2539 270.703 58.3477 270.703C52.9102 270.703 48.6211 268.98 45.4805 265.535C42.3398 262.066 40.7695 257.285 40.7695 251.191V250.523C40.7695 244.664 42.3281 239.988 45.4453 236.496C48.5625 233.004 52.8398 231.258 58.2773 231.258C63.0352 231.258 66.8438 232.617 69.7031 235.336C72.5859 238.031 74.0508 241.629 74.0977 246.129H64.5703C64.5234 244.16 63.9141 242.566 62.7422 241.348C61.5703 240.105 60.0234 239.484 58.1016 239.484C55.7344 239.484 53.9414 240.352 52.7227 242.086C51.5273 243.797 50.9297 246.586 50.9297 250.453V251.508C50.9297 255.422 51.5273 258.234 52.7227 259.945C53.918 261.656 55.7344 262.512 58.1719 262.512ZM78.3164 250.629C78.3164 246.855 79.043 243.492 80.4961 240.539C81.9492 237.586 84.0352 235.301 86.7539 233.684C89.4961 232.066 92.6719 231.258 96.2812 231.258C101.414 231.258 105.598 232.828 108.832 235.969C112.09 239.109 113.906 243.375 114.281 248.766L114.352 251.367C114.352 257.203 112.723 261.891 109.465 265.43C106.207 268.945 101.836 270.703 96.3516 270.703C90.8672 270.703 86.4844 268.945 83.2031 265.43C79.9453 261.914 78.3164 257.133 78.3164 251.086V250.629ZM88.4766 251.367C88.4766 254.977 89.1562 257.742 90.5156 259.664C91.875 261.562 93.8203 262.512 96.3516 262.512C98.8125 262.512 100.734 261.574 102.117 259.699C103.5 257.801 104.191 254.777 104.191 250.629C104.191 247.09 103.5 244.348 102.117 242.402C100.734 240.457 98.7891 239.484 96.2812 239.484C93.7969 239.484 91.875 240.457 90.5156 242.402C89.1562 244.324 88.4766 247.312 88.4766 251.367ZM131.332 270H121.137V216H131.332V270ZM138.152 250.629C138.152 246.855 138.879 243.492 140.332 240.539C141.785 237.586 143.871 235.301 146.59 233.684C149.332 232.066 152.508 231.258 156.117 231.258C161.25 231.258 165.434 232.828 168.668 235.969C171.926 239.109 173.742 243.375 174.117 248.766L174.188 251.367C174.188 257.203 172.559 261.891 169.301 265.43C166.043 268.945 161.672 270.703 156.188 270.703C150.703 270.703 146.32 268.945 143.039 265.43C139.781 261.914 138.152 257.133 138.152 251.086V250.629ZM148.312 251.367C148.312 254.977 148.992 257.742 150.352 259.664C151.711 261.562 153.656 262.512 156.188 262.512C158.648 262.512 160.57 261.574 161.953 259.699C163.336 257.801 164.027 254.777 164.027 250.629C164.027 247.09 163.336 244.348 161.953 242.402C160.57 240.457 158.625 239.484 156.117 239.484C153.633 239.484 151.711 240.457 150.352 242.402C148.992 244.324 148.312 247.312 148.312 251.367ZM178.969 250.699C178.969 244.863 180.352 240.164 183.117 236.602C185.906 233.039 189.656 231.258 194.367 231.258C198.539 231.258 201.785 232.688 204.105 235.547L204.527 231.961H213.738V268.734C213.738 272.062 212.977 274.957 211.453 277.418C209.953 279.879 207.832 281.754 205.09 283.043C202.348 284.332 199.137 284.977 195.457 284.977C192.668 284.977 189.949 284.414 187.301 283.289C184.652 282.188 182.648 280.758 181.289 279L185.789 272.812C188.32 275.648 191.391 277.066 195 277.066C197.695 277.066 199.793 276.34 201.293 274.887C202.793 273.457 203.543 271.418 203.543 268.77V266.73C201.199 269.379 198.117 270.703 194.297 270.703C189.727 270.703 186.023 268.922 183.188 265.359C180.375 261.773 178.969 257.027 178.969 251.121V250.699ZM189.129 251.438C189.129 254.883 189.82 257.59 191.203 259.559C192.586 261.504 194.484 262.477 196.898 262.477C199.992 262.477 202.207 261.316 203.543 258.996V243C202.184 240.68 199.992 239.52 196.969 239.52C194.531 239.52 192.609 240.516 191.203 242.508C189.82 244.5 189.129 247.477 189.129 251.438ZM232.301 270H222.105V231.961H232.301V270ZM221.508 222.117C221.508 220.594 222.012 219.34 223.02 218.355C224.051 217.371 225.445 216.879 227.203 216.879C228.938 216.879 230.32 217.371 231.352 218.355C232.383 219.34 232.898 220.594 232.898 222.117C232.898 223.664 232.371 224.93 231.316 225.914C230.285 226.898 228.914 227.391 227.203 227.391C225.492 227.391 224.109 226.898 223.055 225.914C222.023 224.93 221.508 223.664 221.508 222.117ZM256.523 262.512C258.398 262.512 259.922 261.996 261.094 260.965C262.266 259.934 262.875 258.562 262.922 256.852H272.449C272.426 259.43 271.723 261.797 270.34 263.953C268.957 266.086 267.059 267.75 264.645 268.945C262.254 270.117 259.605 270.703 256.699 270.703C251.262 270.703 246.973 268.98 243.832 265.535C240.691 262.066 239.121 257.285 239.121 251.191V250.523C239.121 244.664 240.68 239.988 243.797 236.496C246.914 233.004 251.191 231.258 256.629 231.258C261.387 231.258 265.195 232.617 268.055 235.336C270.938 238.031 272.402 241.629 272.449 246.129H262.922C262.875 244.16 262.266 242.566 261.094 241.348C259.922 240.105 258.375 239.484 256.453 239.484C254.086 239.484 252.293 240.352 251.074 242.086C249.879 243.797 249.281 246.586 249.281 250.453V251.508C249.281 255.422 249.879 258.234 251.074 259.945C252.27 261.656 254.086 262.512 256.523 262.512Z" fill="#248A00"/>
<path d="M34.0195 247.816V248.816H35.0195V247.816H34.0195ZM13.7695 247.816V246.816H12.7695V247.816H13.7695ZM13.7695 261.527H12.7695V262.527H13.7695V261.527ZM37.5352 261.527H38.5352V260.527H37.5352V261.527ZM37.5352 270V271H38.5352V270H37.5352ZM3.22266 270H2.22266V271H3.22266V270ZM3.22266 218.812V217.812H2.22266V218.812H3.22266ZM37.4648 218.812H38.4648V217.812H37.4648V218.812ZM37.4648 227.355V228.355H38.4648V227.355H37.4648ZM13.7695 227.355V226.355H12.7695V227.355H13.7695ZM13.7695 239.555H12.7695V240.555H13.7695V239.555ZM34.0195 239.555H35.0195V238.555H34.0195V239.555ZM34.0195 246.816H13.7695V248.816H34.0195V246.816ZM12.7695 247.816V261.527H14.7695V247.816H12.7695ZM13.7695 262.527H37.5352V260.527H13.7695V262.527ZM36.5352 261.527V270H38.5352V261.527H36.5352ZM37.5352 269H3.22266V271H37.5352V269ZM4.22266 270V218.812H2.22266V270H4.22266ZM3.22266 219.812H37.4648V217.812H3.22266V219.812ZM36.4648 218.812V227.355H38.4648V218.812H36.4648ZM37.4648 226.355H13.7695V228.355H37.4648V226.355ZM12.7695 227.355V239.555H14.7695V227.355H12.7695ZM13.7695 240.555H34.0195V238.555H13.7695V240.555ZM33.0195 239.555V247.816H35.0195V239.555H33.0195ZM64.5703 256.852V255.852H63.5973L63.5707 256.824L64.5703 256.852ZM74.0977 256.852L75.0976 256.861L75.1068 255.852H74.0977V256.852ZM71.9883 263.953L72.8274 264.497L72.8301 264.493L71.9883 263.953ZM66.293 268.945L66.7331 269.843L66.7367 269.841L66.293 268.945ZM45.4805 265.535L44.7392 266.206L44.7414 266.209L45.4805 265.535ZM69.7031 235.336L69.014 236.061L69.0202 236.066L69.7031 235.336ZM74.0977 246.129V247.129H75.1081L75.0976 246.118L74.0977 246.129ZM64.5703 246.129L63.5706 246.153L63.5938 247.129H64.5703V246.129ZM62.7422 241.348L62.0148 242.034L62.0214 242.041L62.7422 241.348ZM52.7227 242.086L51.9045 241.511L51.9029 241.513L52.7227 242.086ZM58.1719 263.512C60.2387 263.512 62.0132 262.938 63.4028 261.716L62.0816 260.214C61.1274 261.054 59.855 261.512 58.1719 261.512V263.512ZM63.4028 261.716C64.8046 260.482 65.5163 258.838 65.5699 256.879L63.5707 256.824C63.5306 258.287 63.0235 259.385 62.0816 260.214L63.4028 261.716ZM64.5703 257.852H74.0977V255.852H64.5703V257.852ZM73.0977 256.842C73.076 259.234 72.427 261.417 71.1465 263.413L72.8301 264.493C74.3152 262.177 75.0725 259.626 75.0976 256.861L73.0977 256.842ZM71.1492 263.409C69.87 265.382 68.1123 266.929 65.8492 268.049L66.7367 269.841C69.3018 268.571 71.3409 266.79 72.8274 264.497L71.1492 263.409ZM65.8528 268.047C63.6114 269.146 61.1155 269.703 58.3477 269.703V271.703C61.3923 271.703 64.1933 271.088 66.7331 269.843L65.8528 268.047ZM58.3477 269.703C53.1401 269.703 49.1386 268.064 46.2195 264.861L44.7414 266.209C48.1035 269.897 52.6802 271.703 58.3477 271.703V269.703ZM46.2218 264.864C43.2929 261.629 41.7695 257.114 41.7695 251.191H39.7695C39.7695 257.456 41.3868 262.504 44.7392 266.206L46.2218 264.864ZM41.7695 251.191V250.523H39.7695V251.191H41.7695ZM41.7695 250.523C41.7695 244.846 43.2759 240.428 46.1913 237.162L44.6993 235.83C41.3803 239.548 39.7695 244.483 39.7695 250.523H41.7695ZM46.1913 237.162C49.0875 233.917 53.074 232.258 58.2773 232.258V230.258C52.6056 230.258 48.0375 232.09 44.6993 235.83L46.1913 237.162ZM58.2773 232.258C62.8347 232.258 66.3775 233.554 69.0141 236.061L70.3922 234.611C67.31 231.681 63.2357 230.258 58.2773 230.258V232.258ZM69.0202 236.066C71.6747 238.548 73.0532 241.871 73.0977 246.139L75.0976 246.118C75.0483 241.387 73.4972 237.514 70.3861 234.605L69.0202 236.066ZM74.0977 245.129H64.5703V247.129H74.0977V245.129ZM65.57 246.105C65.5182 243.93 64.8365 242.083 63.463 240.655L62.0214 242.041C62.9916 243.05 63.5286 244.39 63.5706 246.153L65.57 246.105ZM63.4696 240.661C62.0842 239.193 60.2607 238.484 58.1016 238.484V240.484C59.7862 240.484 61.0565 241.018 62.0148 242.034L63.4696 240.661ZM58.1016 238.484C55.4529 238.484 53.3345 239.476 51.9045 241.511L53.5408 242.661C54.5483 241.227 56.0158 240.484 58.1016 240.484V238.484ZM51.9029 241.513C50.5265 243.483 49.9297 246.532 49.9297 250.453H51.9297C51.9297 246.64 52.5282 244.11 53.5424 242.659L51.9029 241.513ZM49.9297 250.453V251.508H51.9297V250.453H49.9297ZM49.9297 251.508C49.9297 255.473 50.5255 258.546 51.9029 260.518L53.5424 259.373C52.5292 257.922 51.9297 255.371 51.9297 251.508H49.9297ZM51.9029 260.518C53.3187 262.545 55.4707 263.512 58.1719 263.512V261.512C55.998 261.512 54.5173 260.768 53.5424 259.373L51.9029 260.518ZM86.7539 233.684L86.2459 232.822L86.2427 232.824L86.7539 233.684ZM108.832 235.969L108.135 236.686L108.138 236.689L108.832 235.969ZM114.281 248.766L115.281 248.739L115.28 248.717L115.279 248.696L114.281 248.766ZM114.352 251.367H115.352V251.354L115.351 251.34L114.352 251.367ZM109.465 265.43L110.198 266.109L110.201 266.107L109.465 265.43ZM83.2031 265.43L82.4696 266.109L82.4721 266.112L83.2031 265.43ZM90.5156 259.664L89.6992 260.242L89.7026 260.246L90.5156 259.664ZM102.117 259.699L102.922 260.293L102.925 260.288L102.117 259.699ZM90.5156 242.402L91.3321 242.98L91.3353 242.975L90.5156 242.402ZM79.3164 250.629C79.3164 246.986 80.0171 243.777 81.3934 240.981L79.5988 240.098C78.0688 243.207 77.3164 246.725 77.3164 250.629H79.3164ZM81.3934 240.981C82.7646 238.194 84.7198 236.057 87.2651 234.543L86.2427 232.824C83.3505 234.544 81.1338 236.978 79.5988 240.098L81.3934 240.981ZM87.2619 234.545C89.8304 233.03 92.8262 232.258 96.2812 232.258V230.258C92.5176 230.258 89.1617 231.103 86.2459 232.822L87.2619 234.545ZM96.2812 232.258C101.193 232.258 105.114 233.752 108.135 236.686L109.529 235.251C106.081 231.904 101.635 230.258 96.2812 230.258V232.258ZM108.138 236.689C111.184 239.625 112.922 243.641 113.284 248.835L115.279 248.696C114.89 243.109 112.996 238.593 109.526 235.249L108.138 236.689ZM113.282 248.793L113.352 251.394L115.351 251.34L115.281 248.739L113.282 248.793ZM113.352 251.367C113.352 257.009 111.782 261.436 108.729 264.752L110.201 266.107C113.663 262.346 115.352 257.398 115.352 251.367H113.352ZM108.731 264.75C105.691 268.031 101.602 269.703 96.3516 269.703V271.703C102.07 271.703 106.723 269.86 110.198 266.109L108.731 264.75ZM96.3516 269.703C91.1016 269.703 86.999 268.031 83.9342 264.747L82.4721 266.112C85.9698 269.86 90.6328 271.703 96.3516 271.703V269.703ZM83.9366 264.75C80.8917 261.464 79.3164 256.949 79.3164 251.086H77.3164C77.3164 257.316 78.9989 262.364 82.4696 266.109L83.9366 264.75ZM79.3164 251.086V250.629H77.3164V251.086H79.3164ZM87.4766 251.367C87.4766 255.08 88.1721 258.083 89.6992 260.242L91.332 259.087C90.1404 257.402 89.4766 254.873 89.4766 251.367H87.4766ZM89.7026 260.246C91.2674 262.432 93.5295 263.512 96.3516 263.512V261.512C94.1112 261.512 92.4826 260.693 91.3287 259.082L89.7026 260.246ZM96.3516 263.512C99.1092 263.512 101.339 262.44 102.922 260.293L101.312 259.106C100.13 260.709 98.5158 261.512 96.3516 261.512V263.512ZM102.925 260.288C104.497 258.131 105.191 254.846 105.191 250.629H103.191C103.191 254.709 102.503 257.471 101.309 259.11L102.925 260.288ZM105.191 250.629C105.191 246.977 104.481 244.001 102.932 241.823L101.302 242.982C102.519 244.694 103.191 247.202 103.191 250.629H105.191ZM102.932 241.823C101.351 239.598 99.0934 238.484 96.2812 238.484V240.484C98.4847 240.484 100.118 241.316 101.302 242.982L102.932 241.823ZM96.2812 238.484C93.4884 238.484 91.2525 239.602 89.6959 241.83L91.3353 242.975C92.4975 241.312 94.1053 240.484 96.2812 240.484V238.484ZM89.6992 241.825C88.1615 243.999 87.4766 247.239 87.4766 251.367H89.4766C89.4766 247.386 90.151 244.65 91.332 242.98L89.6992 241.825ZM131.332 270V271H132.332V270H131.332ZM121.137 270H120.137V271H121.137V270ZM121.137 216V215H120.137V216H121.137ZM131.332 216H132.332V215H131.332V216ZM131.332 269H121.137V271H131.332V269ZM122.137 270V216H120.137V270H122.137ZM121.137 217H131.332V215H121.137V217ZM130.332 216V270H132.332V216H130.332ZM146.59 233.684L146.082 232.822L146.079 232.824L146.59 233.684ZM168.668 235.969L167.971 236.686L167.974 236.689L168.668 235.969ZM174.117 248.766L175.117 248.739L175.116 248.717L175.115 248.696L174.117 248.766ZM174.188 251.367H175.188V251.354L175.187 251.34L174.188 251.367ZM169.301 265.43L170.034 266.109L170.037 266.107L169.301 265.43ZM143.039 265.43L142.306 266.109L142.308 266.112L143.039 265.43ZM150.352 259.664L149.535 260.242L149.539 260.246L150.352 259.664ZM161.953 259.699L162.758 260.293L162.761 260.288L161.953 259.699ZM150.352 242.402L151.168 242.98L151.171 242.975L150.352 242.402ZM139.152 250.629C139.152 246.986 139.853 243.777 141.229 240.981L139.435 240.098C137.905 243.207 137.152 246.725 137.152 250.629H139.152ZM141.229 240.981C142.601 238.194 144.556 236.057 147.101 234.543L146.079 232.824C143.186 234.544 140.97 236.978 139.435 240.098L141.229 240.981ZM147.098 234.545C149.666 233.03 152.662 232.258 156.117 232.258V230.258C152.354 230.258 148.998 231.103 146.082 232.822L147.098 234.545ZM156.117 232.258C161.029 232.258 164.95 233.752 167.971 236.686L169.365 235.251C165.917 231.904 161.471 230.258 156.117 230.258V232.258ZM167.974 236.689C171.02 239.625 172.758 243.641 173.12 248.835L175.115 248.696C174.726 243.109 172.831 238.593 169.362 235.249L167.974 236.689ZM173.118 248.793L173.188 251.394L175.187 251.34L175.117 248.739L173.118 248.793ZM173.188 251.367C173.188 257.009 171.618 261.436 168.565 264.752L170.037 266.107C173.499 262.346 175.188 257.398 175.188 251.367H173.188ZM168.567 264.75C165.527 268.031 161.438 269.703 156.188 269.703V271.703C161.906 271.703 166.559 269.86 170.034 266.109L168.567 264.75ZM156.188 269.703C150.938 269.703 146.835 268.031 143.77 264.747L142.308 266.112C145.806 269.86 150.469 271.703 156.188 271.703V269.703ZM143.773 264.75C140.728 261.464 139.152 256.949 139.152 251.086H137.152C137.152 257.316 138.835 262.364 142.306 266.109L143.773 264.75ZM139.152 251.086V250.629H137.152V251.086H139.152ZM147.312 251.367C147.312 255.08 148.008 258.083 149.535 260.242L151.168 259.087C149.976 257.402 149.312 254.873 149.312 251.367H147.312ZM149.539 260.246C151.103 262.432 153.365 263.512 156.188 263.512V261.512C153.947 261.512 152.318 260.693 151.165 259.082L149.539 260.246ZM156.188 263.512C158.945 263.512 161.175 262.44 162.758 260.293L161.148 259.106C159.966 260.709 158.352 261.512 156.188 261.512V263.512ZM162.761 260.288C164.333 258.131 165.027 254.846 165.027 250.629H163.027C163.027 254.709 162.339 257.471 161.145 259.11L162.761 260.288ZM165.027 250.629C165.027 246.977 164.317 244.001 162.768 241.823L161.138 242.982C162.355 244.694 163.027 247.202 163.027 250.629H165.027ZM162.768 241.823C161.187 239.598 158.929 238.484 156.117 238.484V240.484C158.321 240.484 159.954 241.316 161.138 242.982L162.768 241.823ZM156.117 238.484C153.324 238.484 151.088 239.602 149.532 241.83L151.171 242.975C152.333 241.312 153.941 240.484 156.117 240.484V238.484ZM149.535 241.825C147.997 243.999 147.312 247.239 147.312 251.367H149.312C149.312 247.386 149.987 244.65 151.168 242.98L149.535 241.825ZM183.117 236.602L182.33 235.985L182.327 235.988L183.117 236.602ZM204.105 235.547L203.329 236.177L204.822 238.017L205.099 235.664L204.105 235.547ZM204.527 231.961V230.961H203.638L203.534 231.844L204.527 231.961ZM213.738 231.961H214.738V230.961H213.738V231.961ZM211.453 277.418L210.603 276.892L210.599 276.898L211.453 277.418ZM187.301 283.289L187.692 282.369L187.685 282.366L187.301 283.289ZM181.289 279L180.48 278.412L180.039 279.018L180.498 279.612L181.289 279ZM185.789 272.812L186.535 272.147L185.71 271.222L184.98 272.224L185.789 272.812ZM201.293 274.887L200.603 274.163L200.597 274.168L201.293 274.887ZM203.543 266.73H204.543V264.092L202.794 266.068L203.543 266.73ZM183.188 265.359L182.401 265.977L182.405 265.982L183.188 265.359ZM191.203 259.559L190.385 260.133L190.388 260.138L191.203 259.559ZM203.543 258.996L204.41 259.495L204.543 259.263V258.996H203.543ZM203.543 243H204.543V242.729L204.406 242.495L203.543 243ZM191.203 242.508L190.386 241.931L190.382 241.938L191.203 242.508ZM179.969 250.699C179.969 245.02 181.313 240.556 183.907 237.215L182.327 235.988C179.39 239.772 177.969 244.707 177.969 250.699H179.969ZM183.905 237.218C186.495 233.909 189.949 232.258 194.367 232.258V230.258C189.364 230.258 185.317 232.169 182.33 235.985L183.905 237.218ZM194.367 232.258C198.283 232.258 201.225 233.585 203.329 236.177L204.882 234.917C202.345 231.79 198.795 230.258 194.367 230.258V232.258ZM205.099 235.664L205.52 232.078L203.534 231.844L203.112 235.43L205.099 235.664ZM204.527 232.961H213.738V230.961H204.527V232.961ZM212.738 231.961V268.734H214.738V231.961H212.738ZM212.738 268.734C212.738 271.905 212.014 274.611 210.603 276.892L212.303 277.944C213.939 275.303 214.738 272.22 214.738 268.734H212.738ZM210.599 276.898C209.207 279.182 207.239 280.928 204.664 282.138L205.515 283.948C208.425 282.58 210.7 280.576 212.307 277.938L210.599 276.898ZM204.664 282.138C202.081 283.353 199.021 283.977 195.457 283.977V285.977C199.253 285.977 202.615 285.312 205.515 283.948L204.664 282.138ZM195.457 283.977C192.807 283.977 190.221 283.443 187.692 282.369L186.91 284.209C189.678 285.385 192.529 285.977 195.457 285.977V283.977ZM187.685 282.366C185.151 281.312 183.307 279.974 182.08 278.388L180.498 279.612C181.99 281.541 184.153 283.063 186.917 284.212L187.685 282.366ZM182.098 279.588L186.598 273.401L184.98 272.224L180.48 278.412L182.098 279.588ZM185.043 273.478C187.753 276.514 191.089 278.066 195 278.066V276.066C191.692 276.066 188.888 274.783 186.535 272.147L185.043 273.478ZM195 278.066C197.877 278.066 200.253 277.287 201.989 275.605L200.597 274.168C199.333 275.393 197.514 276.066 195 276.066V278.066ZM201.983 275.611C203.732 273.943 204.543 271.611 204.543 268.77H202.543C202.543 271.225 201.854 272.971 200.603 274.163L201.983 275.611ZM204.543 268.77V266.73H202.543V268.77H204.543ZM202.794 266.068C200.657 268.483 197.857 269.703 194.297 269.703V271.703C198.378 271.703 201.742 270.275 204.292 267.393L202.794 266.068ZM194.297 269.703C190.03 269.703 186.615 268.06 183.97 264.737L182.405 265.982C185.432 269.784 189.423 271.703 194.297 271.703V269.703ZM183.974 264.742C181.336 261.379 179.969 256.87 179.969 251.121H177.969C177.969 257.184 179.414 262.168 182.401 265.977L183.974 264.742ZM179.969 251.121V250.699H177.969V251.121H179.969ZM188.129 251.438C188.129 255.003 188.843 257.938 190.385 260.133L192.021 258.984C190.798 257.242 190.129 254.762 190.129 251.438H188.129ZM190.388 260.138C191.961 262.351 194.165 263.477 196.898 263.477V261.477C194.804 261.477 193.211 260.657 192.018 258.979L190.388 260.138ZM196.898 263.477C200.283 263.477 202.864 262.179 204.41 259.495L202.676 258.497C201.55 260.454 199.701 261.477 196.898 261.477V263.477ZM204.543 258.996V243H202.543V258.996H204.543ZM204.406 242.495C202.842 239.825 200.294 238.52 196.969 238.52V240.52C199.69 240.52 201.525 241.535 202.68 243.505L204.406 242.495ZM196.969 238.52C194.206 238.52 191.98 239.674 190.386 241.931L192.02 243.084C193.239 241.358 194.856 240.52 196.969 240.52V238.52ZM190.382 241.938C188.83 244.173 188.129 247.39 188.129 251.438H190.129C190.129 247.563 190.811 244.827 192.025 243.078L190.382 241.938ZM232.301 270V271H233.301V270H232.301ZM222.105 270H221.105V271H222.105V270ZM222.105 231.961V230.961H221.105V231.961H222.105ZM232.301 231.961H233.301V230.961H232.301V231.961ZM223.02 218.355L222.329 217.632L222.321 217.64L223.02 218.355ZM231.316 225.914L230.634 225.183L230.626 225.191L231.316 225.914ZM223.055 225.914L222.364 226.637L222.372 226.645L223.055 225.914ZM232.301 269H222.105V271H232.301V269ZM223.105 270V231.961H221.105V270H223.105ZM222.105 232.961H232.301V230.961H222.105V232.961ZM231.301 231.961V270H233.301V231.961H231.301ZM222.508 222.117C222.508 220.839 222.92 219.851 223.718 219.071L222.321 217.64C221.104 218.829 220.508 220.349 220.508 222.117H222.508ZM223.71 219.079C224.514 218.311 225.639 217.879 227.203 217.879V215.879C225.251 215.879 223.587 216.431 222.329 217.632L223.71 219.079ZM227.203 217.879C228.739 217.879 229.855 218.309 230.661 219.079L232.042 217.632C230.786 216.433 229.136 215.879 227.203 215.879V217.879ZM230.661 219.079C231.48 219.861 231.898 220.846 231.898 222.117H233.898C233.898 220.341 233.286 218.819 232.042 217.632L230.661 219.079ZM231.898 222.117C231.898 223.409 231.47 224.403 230.634 225.183L231.999 226.645C233.272 225.457 233.898 223.919 233.898 222.117H231.898ZM230.626 225.191C229.817 225.963 228.712 226.391 227.203 226.391V228.391C229.117 228.391 230.753 227.834 232.007 226.637L230.626 225.191ZM227.203 226.391C225.695 226.391 224.573 225.963 223.737 225.183L222.372 226.645C223.646 227.834 225.289 228.391 227.203 228.391V226.391ZM223.745 225.191C222.93 224.412 222.508 223.417 222.508 222.117H220.508C220.508 223.912 221.117 225.447 222.364 226.637L223.745 225.191ZM262.922 256.852V255.852H261.949L261.922 256.824L262.922 256.852ZM272.449 256.852L273.449 256.861L273.458 255.852H272.449V256.852ZM270.34 263.953L271.179 264.497L271.182 264.493L270.34 263.953ZM264.645 268.945L265.085 269.843L265.088 269.841L264.645 268.945ZM243.832 265.535L243.091 266.206L243.093 266.209L243.832 265.535ZM268.055 235.336L267.366 236.061L267.372 236.066L268.055 235.336ZM272.449 246.129V247.129H273.46L273.449 246.118L272.449 246.129ZM262.922 246.129L261.922 246.153L261.945 247.129H262.922V246.129ZM261.094 241.348L260.366 242.034L260.373 242.041L261.094 241.348ZM251.074 242.086L250.256 241.511L250.254 241.513L251.074 242.086ZM256.523 263.512C258.59 263.512 260.365 262.938 261.754 261.716L260.433 260.214C259.479 261.054 258.207 261.512 256.523 261.512V263.512ZM261.754 261.716C263.156 260.482 263.868 258.838 263.921 256.879L261.922 256.824C261.882 258.287 261.375 259.385 260.433 260.214L261.754 261.716ZM262.922 257.852H272.449V255.852H262.922V257.852ZM271.449 256.842C271.428 259.234 270.779 261.417 269.498 263.413L271.182 264.493C272.667 262.177 273.424 259.626 273.449 256.861L271.449 256.842ZM269.501 263.409C268.222 265.382 266.464 266.929 264.201 268.049L265.088 269.841C267.653 268.571 269.692 266.79 271.179 264.497L269.501 263.409ZM264.204 268.047C261.963 269.146 259.467 269.703 256.699 269.703V271.703C259.744 271.703 262.545 271.088 265.085 269.843L264.204 268.047ZM256.699 269.703C251.492 269.703 247.49 268.064 244.571 264.861L243.093 266.209C246.455 269.897 251.032 271.703 256.699 271.703V269.703ZM244.573 264.864C241.644 261.629 240.121 257.114 240.121 251.191H238.121C238.121 257.456 239.738 262.504 243.091 266.206L244.573 264.864ZM240.121 251.191V250.523H238.121V251.191H240.121ZM240.121 250.523C240.121 244.846 241.628 240.428 244.543 237.162L243.051 235.83C239.732 239.548 238.121 244.483 238.121 250.523H240.121ZM244.543 237.162C247.439 233.917 251.426 232.258 256.629 232.258V230.258C250.957 230.258 246.389 232.09 243.051 235.83L244.543 237.162ZM256.629 232.258C261.186 232.258 264.729 233.554 267.366 236.061L268.744 234.611C265.662 231.681 261.587 230.258 256.629 230.258V232.258ZM267.372 236.066C270.026 238.548 271.405 241.871 271.449 246.139L273.449 246.118C273.4 241.387 271.849 237.514 268.738 234.605L267.372 236.066ZM272.449 245.129H262.922V247.129H272.449V245.129ZM263.922 246.105C263.87 243.93 263.188 242.083 261.815 240.655L260.373 242.041C261.343 243.05 261.88 244.39 261.922 246.153L263.922 246.105ZM261.821 240.661C260.436 239.193 258.612 238.484 256.453 238.484V240.484C258.138 240.484 259.408 241.018 260.366 242.034L261.821 240.661ZM256.453 238.484C253.804 238.484 251.686 239.476 250.256 241.511L251.892 242.661C252.9 241.227 254.367 240.484 256.453 240.484V238.484ZM250.254 241.513C248.878 243.483 248.281 246.532 248.281 250.453H250.281C250.281 246.64 250.88 244.11 251.894 242.659L250.254 241.513ZM248.281 250.453V251.508H250.281V250.453H248.281ZM248.281 251.508C248.281 255.473 248.877 258.546 250.254 260.518L251.894 259.373C250.881 257.922 250.281 255.371 250.281 251.508H248.281ZM250.254 260.518C251.67 262.545 253.822 263.512 256.523 263.512V261.512C254.35 261.512 252.869 260.768 251.894 259.373L250.254 260.518Z" fill="#fff"/>
</svg>
